# xmcd
#
# Track frame offsets: 
#        150
#        23630
#        38395
#        53452
#        88553
#        116590
#        145606
#        161833
#        174701
#        193615
#        207219
#        218222
#        248522
#        263505
#
# Disc length: 3748 seconds
#
# Revision: 0
# Processed by: cddbd v1.5.2PL0 Copyright (c) Steve Scherf et al.
# Submitted via: ExactAudioCopy v0.99pb3
#
DISCID=ae0ea20e
DTITLE=Various Artist - Retro Soul Vol 2
DYEAR=2008
DGENRE=Soul
TTITLE0=Quannum - I Changed My Mind
TTITLE1=Basis of Attraction - Spinning Wheel
TTITLE2=Amy Whitehouse - Fuck Me Pumps
TTITLE3=Stock Aitken Waterman - Roadblock
TTITLE4=Temptations - The Jones
TTITLE5=Jocelyn Brown - Somebody Else Guy
TTITLE6=Mark Ronson and Amy Whitehouse - Valerie
TTITLE7=Joss Stone - Tell Me 'bout It
TTITLE8=The Routs - The Seed
TTITLE9=Gnarls Barkley - Crazy
TTITLE10=Stefanie Heinzman - Like a Bullet
TTITLE11=Acid Jazz Alliance - Shaft In
TTITLE12=Madcon - Beggin'
TTITLE13=Outkast - Hey Ya
EXTD=
EXTT0=
EXTT1=
EXTT2=
EXTT3=
EXTT4=
EXTT5=
EXTT6=
EXTT7=
EXTT8=
EXTT9=
EXTT10=
EXTT11=
EXTT12=
EXTT13=
PLAYORDER=
